{"title":"The Collection 2012 BRRip 720p x264 AAC - PRiSTiNE [P2PDL]","uid":8111664,"size":464757933,"categoryP":"video","categoryS":"hd___movies","magnet":"?xt=urn:btih:9af7c005a913206849f585b0543e522eb2a1e173&amp;dn=The+Collection+2012+BRRip+720p+x264+AAC+-+PRiSTiNE+%5BP2PDL%5D&amp;tr=udp%3A%2F%2Ftracker.openbittorrent.com%3A80&amp;tr=udp%3A%2F%2Fopen.demonii.com%3A1337&amp;tr=udp%3A%2F%2Ftracker.coppersurfer.tk%3A6969&amp;tr=udp%3A%2F%2Fexodus.desync.com%3A6969","seeders":1,"leechers":1,"uploader":"Vitamin_X","files":-1,"time":1360200183,"description":"_________________________  Visit us at _________________________\n  &lt;a href=&quot;\nhttp://p2pdl.com&quot; rel=&quot;nofollow&quot; target=&quot;_NEW&quot;&gt;\nhttp://p2pdl.com&lt;/a&gt;  ____________________________ &lt;a href=&quot; http://p2pdl.com&quot; rel=&quot;nofollow&quot; target=&quot;_NEW&quot;&gt; http://p2pdl.com&lt;/a&gt;\n\n &lt;a href=&quot;\nhttp://www.shotpix.com/images/27372600378216026441.jpg&quot; rel=&quot;nofollow&quot; target=&quot;_NEW&quot;&gt;\nhttp://www.shotpix.com/images/27372600378216026441.jpg&lt;/a&gt;\n\n\nThe Collection 2012 BRRip 720p x264 AAC - PRiSTiNE [P2PDL]\n\t\t\t\t\nGenre: Action | Horror | Thriller\nA man who escapes from the vicious grips of the serial killer known as &quot;The Collector&quot; is blackmailed to rescue an innocent girl from the killer's booby-trapped warehouse.\nDirector: Marcus Dunstan\nStars: Josh Stewart, Emma Fitzpatrick, Christopher McDonald\nRated: PG 13\n\nInfo:  &lt;a href=&quot;\nhttp://www.imdb.com/title/tt1748227/&quot; rel=&quot;nofollow&quot; target=&quot;_NEW&quot;&gt;\nhttp://www.imdb.com/title/tt1748227/&lt;/a&gt;\n\n\n\n\nGeneral\nComplete name                  : The Collection 2012 BRRip 720p x264 AAC - PRiSTiNE [P2PDL].mp4\nFormat                         : MPEG-4\nFormat profile                 : Base Media / Version 2\nCodec ID                       : mp42\nFile size                      : 437 MiB\nDuration                       : 1h 21mn\nOverall bit rate mode          : Variable\nOverall bit rate               : 749 Kbps\n\nSource                         : 720p.BluRay.x264-DAA (Thanks)\n\nVideo\nFormat                         : AVC\nWidth                          : 1 280 pixels\nHeight                         : 544 pixels\nDisplay aspect ratio           : 2.35:1\nFrame rate mode                : Variable\nFrame rate                     : 24.000 fps\nScan type                      : Progressive\nBits/(Pixel*Frame)             : 0.040\nStream size                    : 388 MiB (89%)\nWriting library                : x264 core 129\n\nAudio\nFormat                         : AAC\nDuration                       : 1h 21mn\nBit rate mode                  : Variable\nBit rate                       : 79.8 Kbps\nChannel(s)                     : 2 channels\nChannel positions              : Front: L R\nSampling rate                  : 48.0 KHz\nStream size                    : 46.6 MiB (11%)\n\n\nSubtitle                       : Yes ( English)\n\n\nScreens:\n &lt;a href=&quot;\nhttp://www.shotpix.com/images/63713244674599241824.jpg&quot; rel=&quot;nofollow&quot; target=&quot;_NEW&quot;&gt;\nhttp://www.shotpix.com/images/63713244674599241824.jpg&lt;/a&gt; &lt;a href=&quot;\nhttp://www.shotpix.com/images/38341849500742062173.jpg&quot; rel=&quot;nofollow&quot; target=&quot;_NEW&quot;&gt;\nhttp://www.shotpix.com/images/38341849500742062173.jpg&lt;/a&gt; &lt;a href=&quot;\nhttp://www.shotpix.com/images/08263749111091711666.jpg&quot; rel=&quot;nofollow&quot; target=&quot;_NEW&quot;&gt;\nhttp://www.shotpix.com/images/08263749111091711666.jpg&lt;/a&gt; &lt;a href=&quot;\nhttp://www.shotpix.com/images/10186722586648578681.jpg&quot; rel=&quot;nofollow&quot; target=&quot;_NEW&quot;&gt;\nhttp://www.shotpix.com/images/10186722586648578681.jpg&lt;/a&gt; &lt;a href=&quot;\nhttp://www.shotpix.com/images/23465216721505931043.jpg&quot; rel=&quot;nofollow&quot; target=&quot;_NEW&quot;&gt;\nhttp://www.shotpix.com/images/23465216721505931043.jpg&lt;/a&gt;\n\nThumbs:\n &lt;a href=&quot;\nhttp://www.shotpix.com/images/55068114161157220308.jpg&quot; rel=&quot;nofollow&quot; target=&quot;_NEW&quot;&gt;\nhttp://www.shotpix.com/images/55068114161157220308.jpg&lt;/a&gt;\n\n----------------------------------------------------------------------------------------------------\n\n\nRecommend to you to use latest version of VLC player. Install K-Lite Codec Pack or shark007 codecs\nin case of any kind of problem in playback (For non-VLC Media Player users). Alternatively, install\nCore AVC codecs, the fastest decoder that there is coupled with Community Center Codec Pack and play\non Windows Media Player Classic. Check sample to be sure.\nEnjoy!\n\nGreets to: VYTO, a2zRG, MusiK_KinG, Neon, Kuroyukihime, TorDigger, Ash968, StyLishSaLH and staff members at\nExtraTorrent, TPB, H33T, KAT, 1337x, PublicHD, Ahashare, BTScene, SilverTorrent, LimeTorrents, TorrentMafia,\nP2PDL, and all others.\n\nEncoder Notes: Looking For Early Access To Anything You Can Provide DVDScr, R5, DVDR, BluRay, Direct\nAudio, Early Music Releases, Seedboxes, Dedicated Servers anything u can provide, Advance / Promo CDs/\nDVDs. If You Got anything to offer contact me at &quot;&lt;a class=&quot;__cf_email__&quot; href=&quot;/cdn-cgi/l/email-protection&quot; data-cfemail=&quot;d3a3a1b493bba6a0bbfdb0bcbe&quot;&gt;[email&amp;#160;protected]&lt;/a&gt;&lt;script cf-hash='f9e31' type=&quot;text/javascript&quot;&gt;\n/* &lt;![CDATA[ */!function(){try{var t=&quot;currentScript&quot;in document?document.currentScript:function(){for(var t=document.getElementsByTagName(&quot;script&quot;),e=t.length;e--;)if(t[e].getAttribute(&quot;cf-hash&quot;))return t[e]}();if(t&amp;&amp;t.previousSibling){var e,r,n,i,c=t.previousSibling,a=c.getAttribute(&quot;data-cfemail&quot;);if(a){for(e=&quot;&quot;,r=parseInt(a.substr(0,2),16),n=2;a.length-n;n+=2)i=parseInt(a.substr(n,2),16)^r,e+=String.fromCharCode(i);e=document.createTextNode(e),c.parentNode.replaceChild(e,c)}}}catch(u){}}();/* ]]&gt; */&lt;/script&gt;&quot;.","torrent":{"xt":"urn:btih:9af7c005a913206849f585b0543e522eb2a1e173","amp;dn":"The+Collection+2012+BRRip+720p+x264+AAC+-+PRiSTiNE+%5BP2PDL%5D","amp;tr":["udp%3A%2F%2Ftracker.openbittorrent.com%3A80","udp%3A%2F%2Fopen.demonii.com%3A1337","udp%3A%2F%2Ftracker.coppersurfer.tk%3A6969","udp%3A%2F%2Fexodus.desync.com%3A6969"],"infoHash":"9af7c005a913206849f585b0543e522eb2a1e173","infoHashBuffer":{"type":"Buffer","data":[154,247,192,5,169,19,32,104,73,245,133,176,84,62,82,46,178,161,225,115]},"announce":[],"urlList":[]}}